<svg width="96" height="96" viewBox="0 0 96 96" fill="none" xmlns="http://www.w3.org/2000/svg">
<g clip-path="url(#clip0_2001_419)">
<path d="M87.9625 8.02347H8.02347V87.9625H87.9625V8.02347Z" fill="url(#paint0_linear_2001_419)"/>
<path d="M8.02346 8.02347H0V87.9625H8.02346V8.02347Z" fill="#27383A"/>
<path d="M95.9859 8.02347H87.9625V87.9625H95.9859V8.02347Z" fill="#27383A"/>
<path d="M87.9766 96V87.9766H8.03756V96H87.9766Z" fill="#27383A"/>
<path d="M87.9625 8.02346V0L8.02345 0V8.02346L87.9625 8.02346Z" fill="#27383A"/>
<path d="M32 52H31.25V51.25V50.5V49.75V49V48.25V47.5V46.75H32H32.75V47.5V48.25V49V49.75V50.5V51.25V52H32ZM26.75 52H26V51.25V50.5V49.75V49V48.25V47.5V46.75V46V45.25H26.75H27.5H28.25H29H29.75H30.5H31.25V46V46.75H30.5H29.75H29H28.25H27.5V47.5V48.25V49V49.75V50.5V51.25V52H26.75ZM37.25 52H36.5H35.75H35V51.25V50.5H35.75H36.5H37.25H38V51.25V52H37.25ZM38 50.5V49.75V49V48.25V47.5V46.75H38.75H39.5V47.5V48.25V49V49.75V50.5H38.75H38ZM35 50.5H34.25H33.5V49.75V49V48.25V47.5V46.75H34.25H35V47.5V48.25V49V49.75V50.5ZM38 46.75H37.25H36.5H35.75H35V46V45.25H35.75H36.5H37.25H38V46V46.75ZM49.25 52H48.5H47.75H47H46.25H45.5H44.75H44V51.25V50.5V49.75V49V48.25V47.5V46.75V46V45.25V44.5V43.75V43H44.75H45.5V43.75V44.5V45.25V46V46.75V47.5H46.25H47V48.25V49H46.25H45.5V49.75V50.5H46.25H47H47.75H48.5H49.25H50V51.25V52H49.25ZM50 50.5V49.75V49V48.25V47.5H50.75H51.5V48.25V49V49.75V50.5H50.75H50ZM50 47.5H49.25H48.5H47.75H47V46.75V46H47.75H48.5H49.25H50V46.75V47.5ZM57.5 52H56.75H56H55.25H54.5H53.75V51.25V50.5H54.5H55.25H56H56.75V49.75V49V48.25V47.5V46.75V46V45.25H57.5H58.25V46V46.75V47.5V48.25V49V49.75V50.5V51.25V52H57.5ZM53.75 50.5H53H52.25V49.75V49V48.25V47.5V46.75V46V45.25H53H53.75V46V46.75V47.5V48.25V49V49.75V50.5ZM62 52H61.25H60.5H59.75H59V51.25V50.5H59.75H60.5H61.25H62H62.75V51.25V52H62ZM62.75 50.5V49.75V49H63.5H64.25V49.75V50.5H63.5H62.75ZM62.75 49H62H61.25H60.5V48.25V47.5H61.25H62H62.75V48.25V49ZM60.5 47.5H59.75H59V46.75V46H59.75H60.5V46.75V47.5ZM63.5 46H62.75H62H61.25H60.5V45.25V44.5H61.25H62H62.75H63.5H64.25V45.25V46H63.5ZM68 52H67.25V51.25V50.5H68H68.75V51.25V52H68ZM67.25 50.5H66.5H65.75V49.75V49V48.25V47.5V46.75H65V46V45.25H65.75V44.5V43.75H66.5H67.25V44.5V45.25H68V46V46.75H67.25V47.5V48.25V49V49.75V50.5Z" fill="#27383A"/>
</g>
<defs>
<linearGradient id="paint0_linear_2001_419" x1="47.993" y1="8.02347" x2="47.993" y2="87.9625" gradientUnits="userSpaceOnUse">
<stop stop-color="#818284"/>
<stop offset="1" stop-color="#D9D9D9"/>
</linearGradient>
<clipPath id="clip0_2001_419">
<rect width="96" height="96" fill="white"/>
</clipPath>
</defs>
</svg>
