<svg width="66" height="66" viewBox="0 0 66 66" fill="none" xmlns="http://www.w3.org/2000/svg">
<g clip-path="url(#clip0_2001_432)">
<path d="M60.4742 5.51614H5.51611V60.4742H60.4742V5.51614Z" fill="url(#paint0_linear_2001_432)"/>
<path d="M5.51613 5.51614H0V60.4742H5.51613V5.51614Z" fill="#27383A"/>
<path d="M65.9903 5.51614H60.4742V60.4742H65.9903V5.51614Z" fill="#27383A"/>
<path d="M60.4839 66V60.4839H5.52582V66H60.4839Z" fill="#27383A"/>
<path d="M60.4742 5.51613V0L5.51611 0V5.51613L60.4742 5.51613Z" fill="#27383A"/>
<path d="M19.125 30H18.375H17.625H16.875H16.125V29.25V28.5H16.875H17.625H18.375H19.125H19.875V29.25V30H19.125ZM19.875 28.5V27.75V27H20.625H21.375V27.75V28.5H20.625H19.875ZM19.875 27H19.125H18.375H17.625V26.25V25.5H18.375H19.125H19.875V26.25V27ZM17.625 25.5H16.875H16.125V24.75V24H16.875H17.625V24.75V25.5ZM20.625 24H19.875H19.125H18.375H17.625V23.25V22.5H18.375H19.125H19.875H20.625H21.375V23.25V24H20.625ZM27.375 30H26.625H25.875H25.125H24.375H23.625V29.25V28.5H24.375H25.125H25.875H26.625V27.75H27.375H28.125V28.5V29.25V30H27.375ZM23.625 28.5H22.875H22.125V27.75V27V26.25V25.5V24.75H22.875H23.625V24V23.25H24.375H25.125H25.875H26.625H27.375H28.125V24V24.75V25.5V26.25H27.375H26.625V27H25.875H25.125H24.375H23.625V27.75V28.5ZM25.875 25.5H26.625V24.75H25.875H25.125H24.375H23.625V25.5H24.375H25.125H25.875ZM29.625 30H28.875V29.25V28.5V27.75V27V26.25V25.5V24.75V24V23.25V22.5V21.75V21H29.625H30.375V21.75V22.5V23.25V24V24.75V25.5V26.25V27V27.75V28.5V29.25V30H29.625ZM36.375 30H35.625H34.875H34.125H33.375H32.625V29.25V28.5H33.375H34.125H34.875H35.625V27.75H36.375H37.125V28.5V29.25V30H36.375ZM32.625 28.5H31.875H31.125V27.75V27V26.25V25.5V24.75H31.875H32.625V24V23.25H33.375H34.125H34.875H35.625H36.375H37.125V24V24.75V25.5V26.25H36.375H35.625V27H34.875H34.125H33.375H32.625V27.75V28.5ZM34.875 25.5H35.625V24.75H34.875H34.125H33.375H32.625V25.5H33.375H34.125H34.875ZM42.375 30H41.625H40.875H40.125H39.375V29.25V28.5H40.125H40.875H41.625H42.375H43.125V29.25V30H42.375ZM43.125 28.5V27.75V27H43.875H44.625V27.75V28.5H43.875H43.125ZM39.375 28.5H38.625H37.875V27.75V27V26.25V25.5V24.75H38.625H39.375V25.5V26.25V27V27.75V28.5ZM43.875 26.25H43.125V25.5V24.75H43.875H44.625V25.5V26.25H43.875ZM43.125 24.75H42.375H41.625H40.875H40.125H39.375V24V23.25H40.125H40.875H41.625H42.375H43.125V24V24.75ZM48.375 30H47.625V29.25V28.5H48.375H49.125V29.25V30H48.375ZM47.625 28.5H46.875H46.125V27.75V27V26.25V25.5V24.75H45.375V24V23.25H46.125V22.5V21.75H46.875H47.625V22.5V23.25H48.375V24V24.75H47.625V25.5V26.25V27V27.75V28.5ZM25.5 43H24.75H24H23.25H22.5H21.75H21H20.25V42.25V41.5V40.75V40V39.25V38.5V37.75V37V36.25V35.5V34.75V34H21H21.75V34.75V35.5V36.25V37V37.75V38.5H22.5H23.25V39.25V40H22.5H21.75V40.75V41.5H22.5H23.25H24H24.75H25.5H26.25V42.25V43H25.5ZM26.25 41.5V40.75V40V39.25V38.5H27H27.75V39.25V40V40.75V41.5H27H26.25ZM26.25 38.5H25.5H24.75H24H23.25V37.75V37H24H24.75H25.5H26.25V37.75V38.5ZM33.75 43H33H32.25H31.5H30.75H30V42.25V41.5H30.75H31.5H32.25H33V40.75V40V39.25V38.5V37.75V37V36.25H33.75H34.5V37V37.75V38.5V39.25V40V40.75V41.5V42.25V43H33.75ZM30 41.5H29.25H28.5V40.75V40V39.25V38.5V37.75V37V36.25H29.25H30V37V37.75V38.5V39.25V40V40.75V41.5ZM38.25 43H37.5H36.75H36H35.25V42.25V41.5H36H36.75H37.5H38.25H39V42.25V43H38.25ZM39 41.5V40.75V40H39.75H40.5V40.75V41.5H39.75H39ZM39 40H38.25H37.5H36.75V39.25V38.5H37.5H38.25H39V39.25V40ZM36.75 38.5H36H35.25V37.75V37H36H36.75V37.75V38.5ZM39.75 37H39H38.25H37.5H36.75V36.25V35.5H37.5H38.25H39H39.75H40.5V36.25V37H39.75ZM44.25 43H43.5V42.25V41.5H44.25H45V42.25V43H44.25ZM43.5 41.5H42.75H42V40.75V40V39.25V38.5V37.75H41.25V37V36.25H42V35.5V34.75H42.75H43.5V35.5V36.25H44.25V37V37.75H43.5V38.5V39.25V40V40.75V41.5Z" fill="#27383A"/>
</g>
<defs>
<linearGradient id="paint0_linear_2001_432" x1="32.9951" y1="5.51614" x2="32.9951" y2="60.4742" gradientUnits="userSpaceOnUse">
<stop stop-color="#818284"/>
<stop offset="1" stop-color="#D9D9D9"/>
</linearGradient>
<clipPath id="clip0_2001_432">
<rect width="66" height="66" fill="white"/>
</clipPath>
</defs>
</svg>
